<svg xmlns="http://www.w3.org/2000/svg" width="840" height="1130" viewBox="0 0 840 1130" font-family="Helvetica, Arial, sans-serif">
<defs><marker id="tri" markerWidth="16" markerHeight="16" refX="12" refY="6" orient="auto"><path d="M1,1 L12,6 L1,11 Z" fill="#fff" stroke="#333" stroke-width="1"/></marker></defs>
<path d="M420,280 L420,265 L420,265 L420,250" fill="none" stroke="#333" stroke-dasharray="6,5" marker-end="url(#tri)"/>
<path d="M274,360 L274,345 L420,345 L420,330" fill="none" stroke="#333" marker-end="url(#tri)"/>
<path d="M635,360 L635,345 L420,345 L420,330" fill="none" stroke="#333" marker-end="url(#tri)"/>
<path d="M420,790 L420,600 L274,600 L274,410" fill="none" stroke="#333" marker-end="url(#tri)"/>
<path d="M440,585 L410,585 L410,385 L359,385" fill="none" stroke="#333" marker-end="url(#tri)"/>
<path d="M240,1020 L240,990 L420,990 L420,960" fill="none" stroke="#333" marker-end="url(#tri)"/>
<path d="M550,1020 L550,990 L420,990 L420,960" fill="none" stroke="#333" marker-end="url(#tri)"/>
<path d="M715,710 L715,690 L620,690 L620,670" fill="none" stroke="#333" marker-end="url(#tri)"/>
<path d="M525,710 L525,690 L620,690 L620,670" fill="none" stroke="#333" marker-end="url(#tri)"/>
<path d="M525,470 L525,450 L635,450 L635,430" fill="none" stroke="#333" marker-end="url(#tri)"/>
<path d="M715,470 L715,450 L635,450 L635,430" fill="none" stroke="#333" marker-end="url(#tri)"/>
<rect x="170" y="20" width="500" height="230" rx="4" fill="#fffef7" stroke="#333"/>
<text x="420" y="36" text-anchor="middle" font-style="italic" font-size="11" fill="#666">«interface»</text>
<text x="420" y="54" text-anchor="middle" font-weight="bold" font-size="12">IDecoratedElement&lt;T extends object = object&gt;</text>
<line x1="170" y1="58" x2="670" y2="58" stroke="#333"/>
<text x="178" y="74" font-size="10" font-family="ui-monospace, monospace">+ getType(): DecoratedElementTypeValues</text>
<text x="178" y="89" font-size="10" font-family="ui-monospace, monospace">+ getClass(): IClass&lt;T&gt;</text>
<text x="178" y="104" font-size="10" font-family="ui-monospace, monospace">+ getName(): string</text>
<text x="178" y="119" font-size="10" font-family="ui-monospace, monospace">+ isStatic(): boolean</text>
<text x="178" y="134" font-size="10" font-family="ui-monospace, monospace">+ hasDecorators(...decoratorClasses): boolean</text>
<text x="178" y="149" font-size="10" font-family="ui-monospace, monospace">+ getDecorators(...decoratorClasses): readonly Decorator[]</text>
<text x="178" y="164" font-size="10" font-family="ui-monospace, monospace">+ addDecorator(decoratorOrFn): this</text>
<text x="178" y="179" font-size="10" font-family="ui-monospace, monospace">+ removeDecorator(decoratorOrClass): this</text>
<rect x="335" y="280" width="170" height="50" rx="4" fill="#fffef7" stroke="#333"/>
<text x="420" y="296" text-anchor="middle" font-style="italic" font-size="11" fill="#666">«abstract class»</text>
<text x="420" y="314" text-anchor="middle" font-weight="bold" font-size="12">DecoratedElement&lt;T&gt;</text>
<rect x="189" y="360" width="170" height="50" rx="4" fill="#fffef7" stroke="#333"/>
<text x="274" y="376" text-anchor="middle" font-style="italic" font-size="11" fill="#666">«abstract class»</text>
<text x="274" y="394" text-anchor="middle" font-weight="bold" font-size="12">ClassMember&lt;T&gt;</text>
<rect x="540" y="360" width="190" height="70" rx="4" fill="#fffef7" stroke="#333"/>
<text x="635" y="376" text-anchor="middle" font-style="italic" font-size="11" fill="#666">«abstract class»</text>
<text x="635" y="394" text-anchor="middle" font-weight="bold" font-size="12">Parameter&lt;T&gt;</text>
<line x1="540" y1="398" x2="730" y2="398" stroke="#333"/>
<text x="548" y="414" font-size="10" font-family="ui-monospace, monospace">+ getIndex(): number</text>
<rect x="440" y="470" width="170" height="50" rx="4" fill="#fffef7" stroke="#333"/>
<text x="525" y="486" text-anchor="middle" font-style="italic" font-size="11" fill="#666">«class»</text>
<text x="525" y="504" text-anchor="middle" font-weight="bold" font-size="12">ConstructorParameter&lt;T&gt;</text>
<rect x="630" y="470" width="170" height="50" rx="4" fill="#fffef7" stroke="#333"/>
<text x="715" y="486" text-anchor="middle" font-style="italic" font-size="11" fill="#666">«class»</text>
<text x="715" y="504" text-anchor="middle" font-weight="bold" font-size="12">MethodParameter&lt;T&gt;</text>
<rect x="440" y="560" width="360" height="110" rx="4" fill="#fffef7" stroke="#333"/>
<text x="620" y="576" text-anchor="middle" font-style="italic" font-size="11" fill="#666">«abstract class»</text>
<text x="620" y="594" text-anchor="middle" font-weight="bold" font-size="12">Field&lt;T, TValue&gt;</text>
<line x1="440" y1="598" x2="800" y2="598" stroke="#333"/>
<text x="448" y="614" font-size="10" font-family="ui-monospace, monospace">+ isGettable(): boolean</text>
<text x="448" y="629" font-size="10" font-family="ui-monospace, monospace">+ isSettable(): boolean</text>
<text x="448" y="644" font-size="10" font-family="ui-monospace, monospace">+ getValue(target): TValue</text>
<text x="448" y="659" font-size="10" font-family="ui-monospace, monospace">+ setValue(target, value): void</text>
<rect x="440" y="710" width="170" height="50" rx="4" fill="#fffef7" stroke="#333"/>
<text x="525" y="726" text-anchor="middle" font-style="italic" font-size="11" fill="#666">«class»</text>
<text x="525" y="744" text-anchor="middle" font-weight="bold" font-size="12">Property&lt;T, TValue&gt;</text>
<rect x="630" y="710" width="170" height="50" rx="4" fill="#fffef7" stroke="#333"/>
<text x="715" y="726" text-anchor="middle" font-style="italic" font-size="11" fill="#666">«class»</text>
<text x="715" y="744" text-anchor="middle" font-weight="bold" font-size="12">Accessor&lt;T, TValue&gt;</text>
<rect x="130" y="790" width="581" height="170" rx="4" fill="#fffef7" stroke="#333"/>
<text x="420" y="806" text-anchor="middle" font-style="italic" font-size="11" fill="#666">«abstract class»</text>
<text x="420" y="824" text-anchor="middle" font-weight="bold" font-size="12">ExecutableMember&lt;T, TReturnType&gt;</text>
<line x1="130" y1="828" x2="710" y2="828" stroke="#333"/>
<text x="138" y="844" font-size="10" font-family="ui-monospace, monospace">+ getKnownParameterCount(): number</text>
<text x="138" y="859" font-size="10" font-family="ui-monospace, monospace">+ getOwnParameterCount(): number</text>
<text x="138" y="874" font-size="10" font-family="ui-monospace, monospace">+ getParameters(): readonly Parameter&lt;T&gt;[]</text>
<text x="138" y="889" font-size="10" font-family="ui-monospace, monospace">+ getParameterAt(index): Parameter&lt;T&gt;</text>
<rect x="130" y="1020" width="220" height="70" rx="4" fill="#fffef7" stroke="#333"/>
<text x="240" y="1036" text-anchor="middle" font-style="italic" font-size="11" fill="#666">«class»</text>
<text x="240" y="1054" text-anchor="middle" font-weight="bold" font-size="12">Constructor&lt;T&gt;</text>
<line x1="130" y1="1058" x2="350" y2="1058" stroke="#333"/>
<text x="138" y="1074" font-size="10" font-family="ui-monospace, monospace">+ newInstance(...parameters): T</text>
<rect x="370" y="1020" width="360" height="70" rx="4" fill="#fffef7" stroke="#333"/>
<text x="550" y="1036" text-anchor="middle" font-style="italic" font-size="11" fill="#666">«class»</text>
<text x="550" y="1054" text-anchor="middle" font-weight="bold" font-size="12">Method&lt;T, TReturnType&gt;</text>
<line x1="370" y1="1058" x2="730" y2="1058" stroke="#333"/>
<text x="378" y="1074" font-size="10" font-family="ui-monospace, monospace">+ invoke(target, ...parameters): TReturnType</text>
</svg>